<?xml version="1.0" encoding="iso-8859-1"?>
<!-- Generator: Adobe Illustrator 19.0.0, SVG Export Plug-In . SVG Version: 6.00 Build 0)  -->
<svg version="1.1" id="Capa_1" xmlns="http://www.w3.org/2000/svg" xmlns:xlink="http://www.w3.org/1999/xlink" x="0px" y="0px"
	 viewBox="0 0 512 512" style="enable-background:new 0 0 512 512;" xml:space="preserve">
<g>
	<g>
		<path d="M387.674,260.516l-9.296-99.539l83.72-83.72L384.842,0l-89.1,89.101L256,61.281l-39.742,27.82L127.158,0L49.901,77.257
			l83.72,83.72l-9.296,99.539L49.901,334.94l61.711,61.711L100.841,512h310.318l-10.772-115.348l61.711-61.711L387.674,260.516z
			 M384.842,42.433l34.823,34.823l-71.298,71.298l-27.362-7.462l-7.461-27.361L384.842,42.433z M313.24,170.076l36.79,10.034
			l4.734,50.688l-41.524,11.325l-36.023-36.023L313.24,170.076z M228.651,117.051L256,97.907l27.349,19.143l8.674,31.807
			L256,184.881l-36.023-36.023L228.651,117.051z M234.783,206.099l-36.023,36.023l-41.524-11.325l4.734-50.688l36.79-10.034
			L234.783,206.099z M92.335,77.257l34.824-34.824l71.298,71.298l-7.462,27.361l-27.362,7.462L92.335,77.257z M92.336,334.941
			l71.297-71.299l27.362,7.462l7.462,27.362l-71.298,71.298L92.336,334.941z M271.003,481.995h-30.005v-83.014h30.005V481.995z
			 M301.008,481.995V368.976h-90.015v113.019h-77.214l7.871-84.29l90.335-90.335l-12.008-44.031L256,227.315l36.023,36.023
			l-12.008,44.031l90.335,90.335l7.871,84.29H301.008z M384.843,369.762l-71.299-71.297l7.462-27.362l27.362-7.462l71.298,71.298
			L384.843,369.762z"/>
	</g>
</g>
<g>
</g>
<g>
</g>
<g>
</g>
<g>
</g>
<g>
</g>
<g>
</g>
<g>
</g>
<g>
</g>
<g>
</g>
<g>
</g>
<g>
</g>
<g>
</g>
<g>
</g>
<g>
</g>
<g>
</g>
</svg>
