<svg id="Layer_1" enable-background="new 0 0 512 512" height="512" viewBox="0 0 512 512" width="512" xmlns="http://www.w3.org/2000/svg"><g><path d="m92.28 217.52c4.552 18.85 12.194 36.67 22.717 52.97 10.333 16 23.167 30.11 38.152 41.95 15.104 11.94 31.979 21.23 50.135 27.62 18.766 6.59 38.501 9.94 58.657 9.94h.01c1.92 0 4.047-.05 6.047-.16v122.16c0 22.056 17.939 40 40.001 40s40.001-17.944 40.001-40v-158c0-6.75-1.342-13.29-3.953-19.45-2.521-5.95-6.134-11.29-10.725-15.88-4.592-4.59-9.934-8.19-15.886-10.71-6.161-2.61-12.703-3.95-19.445-3.96 0 0-19.366.05-20.686.01-26.528-.95-51.066-11.37-69.1-29.34-16.725-16.68-26.308-38.42-26.278-59.67-.01-24.91 11.253-49.85 30.909-68.45 15.214-14.38 42.161-31.52 84.123-31.55h.111c24.077 0 46.913 8.19 61.838 15.06 18.465 8.47 36.2 20.19 48.664 32.16 1.88 1.8 4.331 2.79 6.922 2.79 1.981 0 3.911-.59 5.572-1.71 1.89-1.26 3.311-3.15 3.981-5.32.681-2.16.591-4.52-.24-6.64-6.332-16.1-14.935-31.16-25.587-44.75-10.613-13.54-23.067-25.39-37.021-35.23-29.079-20.52-63.348-31.36-99.099-31.36 0 0-.021 0-.07 0h-.09c-19.046.03-37.791 3.17-55.716 9.35-17.295 5.96-33.55 14.63-48.284 25.77-14.555 11-27.298 24.14-37.881 39.05-10.713 15.09-18.956 31.63-24.497 49.17-.81 2.54-.571 5.25.66 7.62 1.23 2.37 3.311 4.12 5.862 4.93.98.31 2.001.46 3.021.46 4.381 0 8.212-2.8 9.533-6.98 20.345-64.38 80.933-109.36 147.321-109.37h.08.011.05c47.754 0 91.947 21.91 121.285 60.13-5.242-2.96-10.663-5.73-16.125-8.24-11.423-5.24-22.907-9.33-34.15-12.16-12.424-3.13-24.587-4.72-36.151-4.73h-.09c-19.505 0-38.071 3.41-55.186 10.13-16.115 6.33-30.449 15.38-42.602 26.9-5.852 5.53-11.153 11.62-15.764 18.09-4.571 6.41-8.502 13.24-11.663 20.3-3.171 7.07-5.612 14.42-7.242 21.85-1.651 7.51-2.491 15.16-2.491 22.73.01 13.38 2.882 26.67 8.513 39.51 5.562 12.65 13.517 24.2 23.64 34.31 21.596 21.57 50.908 34.06 82.547 35.17 1.611.06 21.023.01 21.334.01 16.574.02 30.043 13.48 30.043 30v26h-40.001c0-4.188-1.21-6.51-3.301-8.4-2.08-1.89-4.901-2.83-7.702-2.55-5.161.5-10.223.95-15.044.95-71.761-.01-133.539-48.19-150.223-117.18-1.09-4.5-5.081-7.65-9.713-7.65-.79 0-1.581.09-2.361.28-5.362 1.3-8.673 6.71-7.373 12.07zm195.677 254.48h40.012c0 11.028-8.974 20-20.006 20s-20.006-8.972-20.006-20zm.04-112h40.001v92h-40.001z"/><circle cx="97.5" cy="170.55" r="10"/></g></svg>